HIERARCHY
ROOT Hips
{
    OFFSET 0.000000 0.000000 0.000000
    CHANNELS 6 Xposition Yposition Zposition Zrotation Xrotation Yrotation
    JOINT Spine
    {
        OFFSET -0.000000 14.517291 0.000000
        CHANNELS 3 Zrotation Xrotation Yrotation
        JOINT Spine1
        {
            OFFSET -0.000000 37.558300 0.000000
            CHANNELS 3 Zrotation Xrotation Yrotation
            JOINT Neck
            {
                OFFSET -0.000000 37.404057 3.400369
                CHANNELS 3 Zrotation Xrotation Yrotation
                JOINT Head
                {
                    OFFSET -0.000000 24.785618 -3.540803
                    CHANNELS 3 Zrotation Xrotation Yrotation
                    End Site
                    {
                        OFFSET -0.000000 35.408028 0.000000
                    }
                }
            }
            JOINT LeftShoulder
            {
                OFFSET 6.992933 33.973492 -0.192664
                CHANNELS 3 Zrotation Xrotation Yrotation
                JOINT LeftArm
                {
                    OFFSET 21.527611 0.000000 0.000000
                    CHANNELS 3 Zrotation Xrotation Yrotation
                    JOINT LeftForeArm
                    {
                        OFFSET 56.353916 0.000000 0.000000
                        CHANNELS 3 Zrotation Xrotation Yrotation
                        JOINT LeftHand
                        {
                            OFFSET 47.774071 0.000000 0.000000
                            CHANNELS 3 Zrotation Xrotation Yrotation
                            End Site
                            {
                                OFFSET 26.556021 0.000000 0.000000
                            }
                        }
                    }
                }
            }
            JOINT RightShoulder
            {
                OFFSET -7.065357 33.973492 -0.192664
                CHANNELS 3 Zrotation Xrotation Yrotation
                JOINT RightArm
                {
                    OFFSET -21.527611 0.000000 0.000000
                    CHANNELS 3 Zrotation Xrotation Yrotation
                    JOINT RightForeArm
                    {
                        OFFSET -56.353916 0.000000 0.000000
                        CHANNELS 3 Zrotation Xrotation Yrotation
                        JOINT RightHand
                        {
                            OFFSET -47.774071 0.000000 0.000000
                            CHANNELS 3 Zrotation Xrotation Yrotation
                            End Site
                            {
                                OFFSET -26.556021 0.000000 0.000000
                            }
                        }
                    }
                }
            }
        }
    }
    JOINT LeftUpLeg
    {
        OFFSET 17.704014 0.000000 0.000000
        CHANNELS 3 Zrotation Xrotation Yrotation
        JOINT LeftLeg
        {
            OFFSET -0.000000 -81.181816 0.000000
            CHANNELS 3 Zrotation Xrotation Yrotation
            JOINT LeftFoot
            {
                OFFSET -0.000000 -62.821102 0.000000
                CHANNELS 3 Zrotation Xrotation Yrotation
                JOINT LeftToeBase
                {
                    OFFSET -0.000000 -11.507608 26.556021
                    CHANNELS 3 Zrotation Xrotation Yrotation
                    End Site
                    {
                        OFFSET -0.000000 0.000000 7.081605
                    }
                }
            }
        }
    }
    JOINT RightUpLeg
    {
        OFFSET -17.704014 0.000000 0.000000
        CHANNELS 3 Zrotation Xrotation Yrotation
        JOINT RightLeg
        {
            OFFSET -0.000000 -81.181816 0.000000
            CHANNELS 3 Zrotation Xrotation Yrotation
            JOINT RightFoot
            {
                OFFSET -0.000000 -62.821102 0.000000
                CHANNELS 3 Zrotation Xrotation Yrotation
                JOINT RightToeBase
                {
                    OFFSET -0.000000 -11.507608 26.556021
                    CHANNELS 3 Zrotation Xrotation Yrotation
                    End Site
                    {
                        OFFSET -0.000000 0.000000 7.081605
                    }
                }
            }
        }
    }
}
MOTION
Frames:    6
Frame Time:    0.008333
-33.599491    149.722717    -28.584755    1.376071    -0.359813    22.901680    -0.969519    2.693230    11.090501    -2.540473    0.105722    3.692579    -8.354214    6.510807    -17.877993    18.578995    -6.380916    -14.266480    7.901263    -4.569100    -8.492770    -6.783068    -13.894863    -32.397484    -23.169348    -18.283707    -94.189201    -14.960092    -37.318783    -29.914543    0.006444    12.671323    0.940332    42.777988    12.180894    47.430870    -42.555435    -38.042316    45.892967    21.281366    -15.693490    32.249340    -1.034514    -34.140858    -29.035769    -13.942171    32.464748    -22.420906    -6.879827    -5.070165    31.869825    0.000000    0.000000    0.000000    3.297456    10.018868    -19.028252    2.069445    29.641548    -3.088618    -0.101216    -34.286022    -7.879831    0.000000    0.000000    0.000000    
-33.585281    149.712799    -28.580088    1.389120    -0.368124    22.887342    -0.973391    2.704570    11.081489    -2.544763    0.105942    3.689540    -8.374556    6.493705    -17.863680    18.599592    -6.346620    -14.249654    7.888810    -4.558913    -8.492599    -6.749898    -13.879436    -32.355331    -23.342737    -18.203644    -94.273361    -14.643588    -37.540070    -29.676283    0.010660    12.673478    0.941242    42.785572    12.180818    47.410099    -42.516014    -38.015491    45.945286    21.318222    -15.648494    32.233242    -1.045244    -34.133568    -29.026407    -13.938135    32.489849    -22.438868    -6.875120    -5.093451    31.883795    0.000000    0.000000    0.000000    3.276386    10.029302    -19.043442    2.070319    29.660069    -3.108452    -0.091070    -34.308178    -7.843804    0.000000    0.000000    0.000000    
-33.572121    149.704117    -28.578466    1.397300    -0.374607    22.873230    -0.964202    2.712858    11.074761    -2.561139    0.112351    3.687509    -8.389894    6.468399    -17.853413    18.612875    -6.312304    -14.238381    7.891840    -4.550536    -8.489471    -6.735449    -13.877093    -32.328327    -23.274220    -18.214195    -94.172577    -14.974278    -37.356609    -29.851843    0.010124    12.671973    0.939750    42.795193    12.176816    47.385475    -42.443699    -38.006126    46.024239    21.319626    -15.636655    32.228340    -1.054180    -34.130196    -29.025444    -13.944920    32.513763    -22.436316    -6.860529    -5.111068    31.893299    0.000000    0.000000    0.000000    3.258407    10.029312    -19.050743    2.062670    29.693075    -3.094013    -0.079142    -34.327415    -7.831772    0.000000    0.000000    0.000000    
-33.560680    149.691406    -28.577396    1.406772    -0.376114    22.860025    -0.967288    2.717960    11.067153    -2.559902    0.117919    3.685060    -8.407875    6.456649    -17.848663    18.621084    -6.308629    -14.229788    7.879023    -4.544101    -8.483621    -6.706707    -13.868902    -32.299221    -23.325287    -18.169558    -94.168251    -14.915924    -37.386181    -29.779016    -0.005998    12.686902    0.937313    42.811756    12.163954    47.379704    -42.395153    -37.970371    46.076355    21.322424    -15.592489    32.226131    -1.063056    -34.133873    -29.035553    -13.962870    32.531658    -22.404797    -6.850623    -5.113558    31.883224    0.000000    0.000000    0.000000    3.237637    10.023324    -19.046625    2.053690    29.729662    -3.105179    -0.052321    -34.351643    -7.789461    0.000000    0.000000    0.000000    
-33.548409    149.681427    -28.579437    1.412509    -0.381286    22.843315    -0.962271    2.722960    11.070436    -2.568297    0.128090    3.686428    -8.405481    6.470228    -17.849861    18.630598    -6.347071    -14.224330    7.883879    -4.539063    -8.490382    -6.695955    -13.884755    -32.272438    -23.358101    -18.102219    -94.147057    -14.895676    -37.365902    -29.700699    -0.000219    12.688863    0.930908    42.794033    12.175001    47.356220    -42.379742    -37.965096    46.100628    21.345449    -15.575734    32.226791    -1.067948    -34.133213    -29.022135    -13.961493    32.556034    -22.413630    -6.840856    -5.136275    31.891840    0.000000    0.000000    0.000000    3.216789    10.014926    -19.034204    2.066978    29.772482    -3.102897    -0.064483    -34.372929    -7.799418    0.000000    0.000000    0.000000    
-33.539818    149.670227    -28.578815    1.415176    -0.389442    22.832272    -0.956606    2.731878    11.067313    -2.572112    0.136015    3.685593    -8.410946    6.477396    -17.855474    18.642447    -6.371932    -14.224000    7.886415    -4.532082    -8.484599    -6.674528    -13.884450    -32.257706    -23.373426    -18.070547    -94.118973    -14.898078    -37.345997    -29.671768    -0.002531    12.702671    0.933911    42.774952    12.181485    47.338673    -42.367771    -37.970715    46.123013    21.356747    -15.578960    32.206974    -1.069741    -34.132828    -29.032467    -13.975898    32.578815    -22.395655    -6.825532    -5.157144    31.896809    0.000000    0.000000    0.000000    3.208948    10.017084    -19.011683    2.082023    29.793392    -3.133103    -0.054314    -34.393013    -7.790267    0.000000    0.000000    0.000000    
